<svg xmlns="http://www.w3.org/2000/svg" version="1.1" xmlns:xlink="http://www.w3.org/1999/xlink" xmlns:svgjs="http://svgjs.dev/svgjs" viewBox="0 0 800 800"><defs><symbol id="bbburst-shape-1" viewBox="0 0 194 167"><path d="m97 0 96.129 166.5H.871L97 0Z"></path></symbol><symbol id="bbburst-shape-2" viewBox="0 0 126 115"><path d="m63 0 62.77 43.877-23.976 70.996H24.206L.23 43.877 63 0Z"></path></symbol><symbol id="bbburst-shape-3" viewBox="0 0 131 127"><path d="m66 0 66 63.5L66 127 0 63.5 66 0Z"></path></symbol><symbol id="bbburst-shape-4" viewBox="0 0 149 143"><path d="M71.647 2.781c.898-2.764 4.808-2.764 5.706 0l15.445 47.534a3 3 0 0 0 2.853 2.073h49.98c2.906 0 4.115 3.719 1.764 5.427L106.96 87.193a2.999 2.999 0 0 0-1.09 3.354l15.445 47.534c.898 2.764-2.266 5.062-4.617 3.354l-40.435-29.378a3 3 0 0 0-3.526 0l-40.435 29.378c-2.351 1.708-5.515-.59-4.617-3.354L43.13 90.547a3 3 0 0 0-1.09-3.354L1.605 57.815c-2.35-1.708-1.142-5.427 1.764-5.427h49.98a3 3 0 0 0 2.853-2.073L71.647 2.781Z"></path></symbol><symbol id="bbburst-shape-8" viewBox="0 0 87 168"><path d="m12 12 31.2546 18.0749c16.4102 9.4902 20.014 31.6325 7.4603 45.8369L36.3296 92.1884c-12.5684 14.2206-8.9394 36.3916 7.5068 45.8636L75 156" stroke-width="14" stroke-linecap="round" stroke-linejoin="round"></path></symbol><symbol id="bbburst-shape-11" viewBox="0 0 194 167"><path d="M10.398 161 97 11l86.603 150H10.397Z" stroke-width="11"></path></symbol><symbol id="bbburst-shape-14" viewBox="0 0 185 109"><path d="M168 16.5C168 58.1975 134.197 92 92.5 92 50.8025 92 17 58.1975 17 16.5" stroke-width="33" stroke-linecap="round"></path></symbol></defs><use xlink:href="#bbburst-shape-11" width="43.59252983674685" opacity="0.516880067327229" transform="matrix(0.8236780093912891,0.5670577896874386,-0.5670577896874386,0.8236780093912891,843.6427919546022,3.834720773717663)" fill="none" stroke="#406ef7"></use><use xlink:href="#bbburst-shape-8" width="16.99476048403624" opacity="0.8898443675599951" transform="matrix(0.9088771090214683,-0.41706402469738135,0.41706402469738135,0.9088771090214683,530.1045085592724,384.827427798422)" fill="none" stroke="#406ef7"></use><use xlink:href="#bbburst-shape-2" width="20.385326384275384" opacity="0.787396884232954" transform="matrix(0.9765351087719376,0.21535826275251205,-0.21535826275251205,0.9765351087719376,682.487191315209,319.56398951441025)" fill="white"></use><use xlink:href="#bbburst-shape-1" width="51.329051626871276" opacity="0.34759160691158797" transform="matrix(0.967154344570327,-0.25418983807135415,0.25418983807135415,0.967154344570327,80.06265939597398,148.71681020829283)" fill="#406ef7"></use><use xlink:href="#bbburst-shape-11" width="16.447666712521237" opacity="0.8818902037724721" transform="matrix(0.8812061517066361,-0.4727321844283305,0.4727321844283305,0.8812061517066361,580.2372929108897,335.4342807521463)" fill="none" stroke="#ad92f0"></use><use xlink:href="#bbburst-shape-11" width="46.318956336900456" opacity="0.4545259718821284" transform="matrix(0.9804877740290321,0.19658007269200434,-0.19658007269200434,0.9804877740290321,368.7410539908239,157.55485673002357)" fill="none" stroke="#9038d6"></use><use xlink:href="#bbburst-shape-11" width="64.50758617882914" opacity="0.11011715706714609" transform="matrix(0.9876312341439663,0.15679459602698753,-0.15679459602698753,0.9876312341439663,323.1588565310226,-331.6807645773588)" fill="none" stroke="#784aed"></use><use xlink:href="#bbburst-shape-3" width="14.477445128964824" opacity="0.8510278047388563" transform="matrix(0.7961239626684817,0.6051335687805081,-0.6051335687805081,0.7961239626684817,961.9698549500557,348.0022091855663)" fill="#3938d6"></use><use xlink:href="#bbburst-shape-2" width="23.11465570324823" opacity="0.802987318544802" transform="matrix(0.8262830131353416,0.5632551661582705,-0.5632551661582705,0.8262830131353416,878.8152109273906,321.3392553650995)" fill="#9038d6"></use><use xlink:href="#bbburst-shape-2" width="40.66779969649048" opacity="0.44279747425918925" transform="matrix(0.8386934962416073,0.5446037269079501,-0.5446037269079501,0.8386934962416073,868.2180131333969,-87.73919604591856)" fill="#9038d6"></use><use xlink:href="#bbburst-shape-3" width="31.31542095242189" opacity="0.6818710002532739" transform="matrix(0.9704745687554059,-0.24120346473259657,0.24120346473259657,0.9704745687554059,574.8682014701831,118.36104274087836)" fill="#9038d6"></use><use xlink:href="#bbburst-shape-4" width="16.724016462394786" opacity="0.785548073525275" transform="matrix(0.9999915652635927,-0.004107237717728805,0.004107237717728805,0.9999915652635927,690.933078026381,209.8521591742587)" fill="black"></use><use xlink:href="#bbburst-shape-3" width="46.35338938450166" opacity="0.5328759526067469" transform="matrix(0.9967866328827534,-0.08010248751607618,0.08010248751607618,0.9967866328827534,695.7358937100179,-61.3967746314749)" fill="#3938d6"></use><use xlink:href="#bbburst-shape-14" width="64.67651470304908" opacity="0.3625151696278316" transform="matrix(0.994151846179576,-0.10799123454123824,0.10799123454123824,0.994151846179576,226.30506310474445,8.394231728315106)" fill="none" stroke="#784aed"></use><use xlink:href="#bbburst-shape-2" width="25.255779622337677" opacity="0.7340908691947867" transform="matrix(0.8445554004030664,0.5354681836019917,-0.5354681836019917,0.8445554004030664,829.7833528506221,254.1190048465474)" fill="#3938d6"></use><use xlink:href="#bbburst-shape-1" width="46.26929253578559" opacity="0.49537431355667294" transform="matrix(0.9996953698477468,-0.02468131894726897,0.02468131894726897,0.9996953698477468,494.45111204348996,-23.93972988330927)" fill="black"></use><use xlink:href="#bbburst-shape-11" width="32.631532979432684" opacity="0.6159668631850523" transform="matrix(0.9921241238583749,-0.12525862388774672,0.12525862388774672,0.9921241238583749,637.6396077729039,32.940619410035026)" fill="none" stroke="#ad92f0"></use><use xlink:href="#bbburst-shape-2" width="65.99596427528951" opacity="0.20243362576321333" transform="matrix(0.9996484506151823,0.026513679161244436,-0.026513679161244436,0.9996484506151823,224.00161864755472,-174.82715794435128)" fill="white"></use><use xlink:href="#bbburst-shape-11" width="34.032704523784986" opacity="0.44815233550089517" transform="matrix(0.9511584551275978,-0.3087030826527029,0.3087030826527029,0.9511584551275978,109.84099693803626,383.840185779616)" fill="none" stroke="white"></use><use xlink:href="#bbburst-shape-8" width="23.137672990934483" opacity="0.7329245654733636" transform="matrix(0.9760551716255913,-0.2175231066873988,0.2175231066873988,0.9760551716255913,582.9910909648212,172.85032494534624)" fill="none" stroke="#3938d6"></use><use xlink:href="#bbburst-shape-2" width="20.826229954120805" opacity="0.6277064392904417" transform="matrix(0.7845959119142828,-0.6200074636707166,0.6200074636707166,0.7845959119142828,514.8625932835547,121.46143901252918)" fill="#406ef7"></use><use xlink:href="#bbburst-shape-3" width="58.91932591883182" opacity="0.24254721070185192" transform="matrix(0.9348027749000234,0.355167245166578,-0.355167245166578,0.9348027749000234,194.0891378900737,181.00335014984705)" fill="black"></use><use xlink:href="#bbburst-shape-3" width="61.48093616158654" opacity="0.39552532610323543" transform="matrix(0.8760917756636504,-0.4821443773544518,0.4821443773544518,0.8760917756636504,313.66333471782985,-78.1362157746239)" fill="#ad92f0"></use><use xlink:href="#bbburst-shape-11" width="36.055303581276355" opacity="0.23720552089374025" transform="matrix(0.9953388890395535,0.0964390790370136,-0.0964390790370136,0.9953388890395535,67.45099730670032,279.2213923038459)" fill="none" stroke="#3938d6"></use><use xlink:href="#bbburst-shape-3" width="13.312041209255543" opacity="0.9156288277104049" transform="matrix(0.9490257360666116,-0.3151985918166927,0.3151985918166927,0.9490257360666116,584.9776493112672,405.2013104565822)" fill="#3938d6"></use><use xlink:href="#bbburst-shape-11" width="49.16356507509218" opacity="0.312587437616207" transform="matrix(0.8251515157191096,-0.5649114763451492,0.5649114763451492,0.8251515157191096,499.4442614741125,-201.9891066992414)" fill="none" stroke="#9038d6"></use><use xlink:href="#bbburst-shape-8" width="39.333710604396884" opacity="0.41771013628931564" transform="matrix(0.9745445533991474,-0.22419391927538201,0.22419391927538201,0.9745445533991474,642.3917188612241,-165.65298688817208)" fill="none" stroke="black"></use><use xlink:href="#bbburst-shape-11" width="13.9431702018866" opacity="0.8596596394349008" transform="matrix(0.9603405579962105,-0.2788297198426434,0.2788297198426434,0.9603405579962105,580.2177855694863,320.7221100080801)" fill="none" stroke="#406ef7"></use><use xlink:href="#bbburst-shape-14" width="13.92713519474491" opacity="0.9539445141313307" transform="matrix(0.9493723415760739,0.31415307900824785,-0.31415307900824785,0.9493723415760739,902.5034734721602,375.09865425648246)" fill="none" stroke="black"></use><use xlink:href="#bbburst-shape-14" width="67.91102112353946" opacity="0.25460706160067736" transform="matrix(0.9866169131148784,0.16305541007788887,-0.16305541007788887,0.9866169131148784,451.74516482203796,-241.37305759278766)" fill="none" stroke="#ad92f0"></use><use xlink:href="#bbburst-shape-2" width="11.895435451369789" opacity="0.928815656504534" transform="matrix(0.7349600145294792,0.6781104460505144,-0.6781104460505144,0.7349600145294792,1014.396843224561,453.8841319396672)" fill="#406ef7"></use><use xlink:href="#bbburst-shape-14" width="45.32755248872459" opacity="0.3211894218058463" transform="matrix(0.9759118109896373,0.21816538948909028,-0.21816538948909028,0.9759118109896373,667.4345503801768,-244.63245807563507)" fill="none" stroke="#9038d6"></use><use xlink:href="#bbburst-shape-14" width="33.76285644250384" opacity="0.6560104251742587" transform="matrix(0.84680130720606,-0.5319093401267815,0.5319093401267815,0.84680130720606,376.09788545726076,188.21233088834896)" fill="none" stroke="#406ef7"></use><use xlink:href="#bbburst-shape-3" width="12.11787071892542" opacity="0.9516757515361122" transform="matrix(0.8399038611894873,0.5427352061171178,-0.5427352061171178,0.8399038611894873,966.1911909658702,445.23713489763855)" fill="black"></use><use xlink:href="#bbburst-shape-3" width="49.4204680267503" opacity="0.4722093918161141" transform="matrix(0.8760099436272852,0.4822930423156864,-0.4822930423156864,0.8760099436272852,461.80945317904764,299.0941107848294)" fill="#9038d6"></use><use xlink:href="#bbburst-shape-8" width="16.32380590886199" opacity="0.8346660467444516" transform="matrix(0.9226645894115845,-0.38560349511635944,0.38560349511635944,0.9226645894115845,494.3859287805704,352.5657683352279)" fill="none" stroke="black"></use><use xlink:href="#bbburst-shape-1" width="38.49132004468433" opacity="0.593466343278301" transform="matrix(0.9921976920002558,-0.1246745362508544,0.1246745362508544,0.9921976920002558,547.6991206327012,42.726074521423755)" fill="#406ef7"></use><use xlink:href="#bbburst-shape-11" width="22.3472529706987" opacity="0.7739450297341317" transform="matrix(0.8763923791549253,0.4815977551434077,-0.4815977551434077,0.8763923791549253,947.7129178025325,220.52330130577684)" fill="none" stroke="black"></use><use xlink:href="#bbburst-shape-8" width="60.98999442297712" opacity="0.17218214835522105" transform="matrix(0.9185073570870512,0.3954038884191204,-0.3954038884191204,0.9185073570870512,190.0684720787514,49.649406794114554)" fill="none" stroke="#ad92f0"></use><use xlink:href="#bbburst-shape-14" width="28.780523841144436" opacity="0.663913681314499" transform="matrix(0.9914190375012304,-0.13072219429054105,0.13072219429054105,0.9914190375012304,482.517323698757,181.77414951052106)" fill="none" stroke="white"></use><use xlink:href="#bbburst-shape-11" width="23.48518638597015" opacity="0.7267388608061354" transform="matrix(0.9897311050565928,-0.1429417352750959,0.1429417352750959,0.9897311050565928,472.6810147185183,316.82263049519406)" fill="none" stroke="black"></use><use xlink:href="#bbburst-shape-4" width="24.225017171432583" opacity="0.7099103067013535" transform="matrix(0.9636019262651876,-0.2673412196015047,0.2673412196015047,0.9636019262651876,393.20303086805353,384.7150132872985)" fill="#406ef7"></use><use xlink:href="#bbburst-shape-11" width="59.628075509155046" opacity="0.3482619259809647" transform="matrix(0.8372151034213358,-0.5468737245500117,0.5468737245500117,0.8372151034213358,148.97546882275526,-28.34147519710166)" fill="none" stroke="black"></use><use xlink:href="#bbburst-shape-14" width="13.941903482413391" opacity="0.8354763144809274" transform="matrix(0.9881148043317234,-0.15371770704925283,0.15371770704925283,0.9881148043317234,713.3395070423168,242.3401762128737)" fill="none" stroke="white"></use><use xlink:href="#bbburst-shape-1" width="39.05092370439437" opacity="0.296950869055535" transform="matrix(0.8700089472997484,0.49303593339470053,-0.49303593339470053,0.8700089472997484,278.2627944809585,402.9281947025354)" fill="white"></use><use xlink:href="#bbburst-shape-2" width="49.334405051683795" opacity="0.24914586301110087" transform="matrix(0.9063113830218772,-0.4226105500398354,0.4226105500398354,0.9063113830218772,-12.425015842196672,25.906840811620896)" fill="black"></use><use xlink:href="#bbburst-shape-2" width="24.291090229741943" opacity="0.7095335903915532" transform="matrix(0.9992980175761266,0.03746294260230124,-0.03746294260230124,0.9992980175761266,765.834295576736,111.73953295359223)" fill="white"></use><use xlink:href="#bbburst-shape-1" width="15.286615172542273" opacity="0.8973938076091893" transform="matrix(0.7095801403103658,0.704624740182405,-0.704624740182405,0.7095801403103658,1018.9200773834846,425.8100638195275)" fill="white"></use><use xlink:href="#bbburst-shape-14" width="34.723692161533464" opacity="0.6800527984079056" transform="matrix(0.9623368100775802,-0.2718600080366865,0.2718600080366865,0.9623368100775802,393.68231316500714,266.6198544998128)" fill="none" stroke="white"></use><use xlink:href="#bbburst-shape-11" width="76.31576891825074" opacity="-0.002585963467390595" transform="matrix(0.910811193667613,0.4128231697588907,-0.4128231697588907,0.910811193667613,228.9828464323656,-296.97442683893485)" fill="none" stroke="#3938d6"></use><use xlink:href="#bbburst-shape-8" width="16.38874044826534" opacity="0.8211879246595926" transform="matrix(0.8879518554711392,0.45993641121937845,-0.45993641121937845,0.8879518554711392,918.3397494773725,272.029583191105)" fill="none" stroke="black"></use><use xlink:href="#bbburst-shape-14" width="39.70196148569962" opacity="0.574705046548226" transform="matrix(0.9994918162637968,-0.031876468149664904,0.031876468149664904,0.9994918162637968,478.84087100441377,88.47403443669327)" fill="none" stroke="black"></use><use xlink:href="#bbburst-shape-8" width="18.4905316049534" opacity="0.8274461458882876" transform="matrix(0.7276745665008906,0.6859225359089326,-0.6859225359089326,0.7276745665008906,897.4845129520679,473.92789864182816)" fill="none" stroke="#406ef7"></use><use xlink:href="#bbburst-shape-11" width="55.04918003334981" opacity="0.36763185469675674" transform="matrix(0.9155477411291227,0.4022093157963411,-0.4022093157963411,0.9155477411291227,317.1457511518246,291.8789847841131)" fill="none" stroke="white"></use><use xlink:href="#bbburst-shape-2" width="26.591714888838663" opacity="0.7450633368674464" transform="matrix(0.89584878512204,0.44435903748586564,-0.44435903748586564,0.89584878512204,757.5527548281002,288.74493105044655)" fill="#406ef7"></use><use xlink:href="#bbburst-shape-11" width="34.864547205889586" opacity="0.5021499415428674" transform="matrix(0.7278198004495302,0.6857684288982732,-0.6857684288982732,0.7278198004495302,657.7627596419154,205.8928352014387)" fill="none" stroke="#3938d6"></use><use xlink:href="#bbburst-shape-2" width="39.28420749838318" opacity="0.5576608162358677" transform="matrix(0.9862272870356626,0.1653957022001379,-0.1653957022001379,0.9862272870356626,433.72335915321224,244.02272279792913)" fill="#3938d6"></use><use xlink:href="#bbburst-shape-3" width="11.415886575987933" opacity="0.9799621989024979" transform="matrix(0.9927705690116683,-0.12002748561995505,0.12002748561995505,0.9927705690116683,731.7311619511838,389.8027074382996)" fill="#406ef7"></use><use xlink:href="#bbburst-shape-14" width="49.65613570214087" opacity="0.4600425901607351" transform="matrix(0.8220405315143913,-0.569428981127179,0.569428981127179,0.8220405315143913,178.50183029222535,95.29990805528439)" fill="none" stroke="#3938d6"></use><use xlink:href="#bbburst-shape-11" width="26.274018275395914" opacity="0.7744657066113951" transform="matrix(0.7916373154309184,0.6109912935691707,-0.6109912935691707,0.7916373154309184,810.559623156298,445.91172413664816)" fill="none" stroke="#9038d6"></use><use xlink:href="#bbburst-shape-4" width="30.12688799180787" opacity="0.6403996652022708" transform="matrix(0.9899434875234603,0.14146339282616066,-0.14146339282616066,0.9899434875234603,498.93761090451875,293.07359130167526)" fill="#406ef7"></use><use xlink:href="#bbburst-shape-2" width="36.3531250826728" opacity="0.5578292891440793" transform="matrix(0.9428275993024309,-0.3332808395236889,0.3332808395236889,0.9428275993024309,210.33676490360688,377.9438078650978)" fill="#ad92f0"></use><use xlink:href="#bbburst-shape-8" width="28.669291287941114" opacity="0.6401810938024676" transform="matrix(0.9894205721448963,-0.1450756058628261,0.1450756058628261,0.9894205721448963,369.698185505931,371.06626038399986)" fill="none" stroke="black"></use><use xlink:href="#bbburst-shape-2" width="30.539995542203656" opacity="0.5976701537852942" transform="matrix(0.9821077636766014,0.18831978262026797,-0.18831978262026797,0.9821077636766014,520.9166598904801,188.26606565422946)" fill="#784aed"></use><use xlink:href="#bbburst-shape-4" width="20.279188463745395" opacity="0.8721304009417133" transform="matrix(0.9439908368387822,0.32997166539631206,-0.32997166539631206,0.9439908368387822,796.849705722565,394.88790227975556)" fill="#784aed"></use><use xlink:href="#bbburst-shape-2" width="34.34220696360409" opacity="0.23326745252694714" transform="matrix(0.9940235587855915,-0.10916576651692513,0.10916576651692513,0.9940235587855915,624.87626468874,-353.8691205291902)" fill="#784aed"></use><use xlink:href="#bbburst-shape-11" width="75.71592635918205" opacity="0.09302516874809164" transform="matrix(0.9775210980916246,0.2108376218461605,-0.2108376218461605,0.9775210980916246,124.02447585792332,-146.87881321719817)" fill="none" stroke="#784aed"></use><use xlink:href="#bbburst-shape-11" width="14.260579277903187" opacity="0.9217223315027578" transform="matrix(0.9983104891172442,-0.05810479600246964,0.05810479600246964,0.9983104891172442,751.6282783973785,324.7268420499348)" fill="none" stroke="#9038d6"></use><use xlink:href="#bbburst-shape-3" width="40.02034652454493" opacity="0.1967807200723447" transform="matrix(0.9697242779425463,0.24420242580450985,-0.24420242580450985,0.9697242779425463,579.9038726901458,-338.6173175699304)" fill="#3938d6"></use></svg>