<svg xmlns="http://www.w3.org/2000/svg" version="1.1" xmlns:xlink="http://www.w3.org/1999/xlink" xmlns:svgjs="http://svgjs.dev/svgjs" width="520" height="400" preserveAspectRatio="none" viewBox="0 0 520 400"><g mask="url(&quot;#SvgjsMask1068&quot;)" fill="none"><rect width="520" height="400" x="0" y="0" fill="rgba(231, 231, 231, 1)"></rect><path d="M56.19 263.84 a20.42 20.42 0 1 0 40.84 0 a20.42 20.42 0 1 0 -40.84 0z" fill="rgba(120, 74, 237, 1)"></path><path d="M360.92 128.18a4.46 4.46 0 1 0-8.81 1.44z" fill="rgba(120, 74, 237, 1)"></path><path d="M82.22 36L111.58 36L111.58 44.58L82.22 44.58z" stroke="rgba(128, 96, 135, 1)"></path><path d="M30.7 304.97 a26.01 26.01 0 1 0 52.02 0 a26.01 26.01 0 1 0 -52.02 0z" stroke="rgba(57, 56, 214, 1)"></path><path d="M376.89 361.49 a27.33 27.33 0 1 0 54.66 0 a27.33 27.33 0 1 0 -54.66 0z" stroke="rgba(173, 146, 240, 1)"></path><path d="M487.31 303.48L510.64 303.48L510.64 326.81L487.31 326.81z" fill="rgba(120, 74, 237, 1)"></path><path d="M427.88 387.47 a32.12 32.12 0 1 0 64.24 0 a32.12 32.12 0 1 0 -64.24 0z" fill="rgba(198, 103, 246, 1)"></path><path d="M167.42 370.39 a14.69 14.69 0 1 0 29.38 0 a14.69 14.69 0 1 0 -29.38 0z" fill="rgba(120, 74, 237, 1)"></path><path d="M408.41 138.83 a3.04 3.04 0 1 0 6.08 0 a3.04 3.04 0 1 0 -6.08 0z" stroke="rgba(173, 146, 240, 1)"></path><path d="M382.13 378.18 a20.03 20.03 0 1 0 40.06 0 a20.03 20.03 0 1 0 -40.06 0z" fill="rgba(57, 56, 214, 1)"></path><path d="M14.32 88.31 a17 17 0 1 0 34 0 a17 17 0 1 0 -34 0z" fill="rgba(57, 56, 214, 1)"></path><path d="M303.59 361.66L333.28 361.66L333.28 391.35L303.59 391.35z" stroke="rgba(173, 146, 240, 1)"></path><path d="M389.77 255.77L422.95 255.77L422.95 288.95L389.77 288.95z" stroke="rgba(198, 103, 246, 1)"></path><path d="M251.83 37.04 a14.11 14.11 0 1 0 28.22 0 a14.11 14.11 0 1 0 -28.22 0z" fill="rgba(128, 96, 135, 1)"></path><path d="M403.95 352.83 a20.39 20.39 0 1 0 40.78 0 a20.39 20.39 0 1 0 -40.78 0z" stroke="rgba(144, 56, 214, 1)"></path><path d="M260.15 316.87L275.35 316.87L275.35 332.07L260.15 332.07z" fill="rgba(120, 74, 237, 1)"></path><path d="M186.41 218.82a26.52 26.52 0 1 0-3.95-52.89z" stroke="rgba(144, 56, 214, 1)"></path></g><defs><mask id="SvgjsMask1068"><rect width="520" height="400" fill="#ffffff"></rect></mask></defs></svg>