<svg width="61" height="61" viewBox="0 0 61 61" fill="none" xmlns="http://www.w3.org/2000/svg">
<path fill-rule="evenodd" clip-rule="evenodd" d="M30.7598 0.897949C47.3288 0.897949 60.7598 14.6677 60.7598 31.6567C60.7598 45.2437 52.1738 56.7698 40.2608 60.8408C38.7398 61.1438 38.1998 60.1833 38.1998 59.3643C38.1998 58.3503 38.2358 55.0384 38.2358 50.9224C38.2358 48.0544 37.2758 46.1825 36.1988 45.2285C42.8798 44.4665 49.8998 41.8653 49.8998 30.0513C49.8998 26.6913 48.7358 23.9494 46.8098 21.7954C47.1218 21.0184 48.1508 17.8898 46.5158 13.6538C46.5158 13.6538 44.0018 12.8296 38.2748 16.8076C35.8778 16.1266 33.3098 15.784 30.7598 15.772C28.2098 15.784 25.6448 16.1266 23.2508 16.8076C17.5178 12.8296 14.9978 13.6538 14.9978 13.6538C13.3688 17.8898 14.3978 21.0184 14.7068 21.7954C12.7898 23.9494 11.6168 26.6913 11.6168 30.0513C11.6168 41.8353 18.6218 44.4764 25.2848 45.2534C24.4268 46.0214 23.6498 47.3762 23.3798 49.3652C21.6698 50.1512 17.3258 51.5115 14.6498 46.8105C14.6498 46.8105 13.0628 43.8552 10.0508 43.6392C10.0508 43.6392 7.12576 43.6003 9.84676 45.5083C9.84676 45.5083 11.8118 46.4533 13.1768 50.0083C13.1768 50.0083 14.9378 55.4982 23.2838 53.6382C23.2988 56.2092 23.3258 58.6323 23.3258 59.3643C23.3258 60.1773 22.7738 61.1287 21.2768 60.8438C9.35476 56.7787 0.759766 45.2467 0.759766 31.6567C0.759766 14.6677 14.1938 0.897949 30.7598 0.897949Z" fill="black"/>
</svg>
