<svg width="61" height="61" viewBox="0 0 61 61" fill="none" xmlns="http://www.w3.org/2000/svg">
<path fill-rule="evenodd" clip-rule="evenodd" d="M15.0952 19.5425V60.769H0.151516V19.5425H15.0952ZM37.6219 19.4663V21.8956C39.8033 20.4876 42.319 19.669 46.1337 19.669C58.558 19.669 60.15 29.3149 60.15 37.7179V60.7679H45.1313V38.8668C45.1313 35.1835 43.8134 34.4851 41.3766 34.4851C39.0599 34.4851 37.6219 35.221 37.6219 38.8668V60.7679H22.6031V19.4663H37.6219ZM7.62223 0.769043C11.7449 0.769043 15.0941 4.12198 15.0941 8.24089C15.0941 12.3598 11.7449 15.7127 7.6222 15.7127C3.50336 15.7127 0.150391 12.3598 0.150391 8.24086C0.150391 4.12201 3.50333 0.769043 7.62223 0.769043Z" fill="black"/>
</svg>
