<svg xmlns="http://www.w3.org/2000/svg" version="1.1" xmlns:xlink="http://www.w3.org/1999/xlink" xmlns:svgjs="http://svgjs.dev/svgjs" width="520" height="400" preserveAspectRatio="none" viewBox="0 0 520 400"><g mask="url(&quot;#SvgjsMask2206&quot;)" fill="none"><rect width="520" height="400" x="0" y="0" fill="rgba(231, 231, 231, 1)"></rect><rect width="168" height="168" clip-path="url(&quot;#SvgjsClipPath2207&quot;)" x="373.83" y="-56.12" fill="url(&quot;#SvgjsPattern2208&quot;)" transform="rotate(235.52, 457.83, 27.88)"></rect><circle r="45.3189023159422" cx="490.3" cy="257.68" stroke="rgba(120, 74, 237, 1)" stroke-width="1" stroke-dasharray="2, 2"></circle><rect width="69.8" height="69.8" clip-path="url(&quot;#SvgjsClipPath2209&quot;)" x="359.14" y="228.54" fill="url(&quot;#SvgjsPattern2210&quot;)" transform="rotate(269.67, 394.04, 263.44)"></rect><path d="M377.51 77.41L364.75 78.46 360.92 66.23 348.16 67.28 344.33 55.06 331.57 56.11 327.74 43.89M381.98 70.77L369.21 71.82 365.39 59.6 352.63 60.65 348.8 48.43 336.04 49.48 332.21 37.25" stroke="rgba(144, 56, 214, 1)" stroke-width="1.03" stroke-dasharray="4, 4"></path><circle r="64.62037986806844" cx="108.01" cy="119.94" stroke="rgba(128, 96, 135, 1)" stroke-width="2.15" stroke-dasharray="4, 4"></circle><rect width="216" height="216" clip-path="url(&quot;#SvgjsClipPath2211&quot;)" x="162.69" y="272.57" fill="url(&quot;#SvgjsPattern2212&quot;)" transform="rotate(277.25, 270.69, 380.57)"></rect></g><defs><mask id="SvgjsMask2206"><rect width="520" height="400" fill="#ffffff"></rect></mask><pattern x="0" y="0" width="168" height="6" patternUnits="userSpaceOnUse" id="SvgjsPattern2208"><rect width="168" height="3" x="0" y="0" fill="rgba(128, 96, 135, 1)"></rect><rect width="168" height="3" x="0" y="3" fill="rgba(0, 0, 0, 0)"></rect></pattern><clipPath id="SvgjsClipPath2207"><circle r="42" cx="457.83" cy="27.88"></circle></clipPath><pattern x="0" y="0" width="6.98" height="6.98" patternUnits="userSpaceOnUse" id="SvgjsPattern2210"><path d="M3.49 1L3.49 5.98M1 3.49L5.98 3.49" stroke="rgba(120, 74, 237, 1)" fill="none" stroke-width="1"></path></pattern><clipPath id="SvgjsClipPath2209"><circle r="17.45" cx="394.04" cy="263.44"></circle></clipPath><pattern x="0" y="0" width="6" height="6" patternUnits="userSpaceOnUse" id="SvgjsPattern2212"><path d="M3 1L3 5M1 3L5 3" stroke="rgba(173, 146, 240, 1)" fill="none" stroke-width="1.44"></path></pattern><clipPath id="SvgjsClipPath2211"><circle r="54" cx="270.69" cy="380.57"></circle></clipPath></defs></svg>